<svg width="40" height="40" viewBox="0 0 40 40" fill="none" xmlns="http://www.w3.org/2000/svg">
<path d="M20 40C31.0457 40 40 31.0457 40 20C40 8.95431 31.0457 0 20 0C8.95431 0 0 8.95431 0 20C0 31.0457 8.95431 40 20 40Z" fill="#DC4E41"/>
<path d="M7.00506 20.2587C6.93412 23.6999 9.30425 26.9838 12.5646 28.0547C15.6357 29.0865 19.4116 28.3146 21.4551 25.6846C22.9472 23.8418 23.2862 21.385 23.1247 19.0897C20.4947 19.0662 17.8646 19.074 15.2385 19.0779C15.2342 20.0149 15.2385 20.9482 15.2424 21.8852C16.8172 21.9287 18.3923 21.9087 19.967 21.9404C19.5695 23.3027 18.6639 24.5705 17.2896 25.0625C14.636 26.2319 11.2501 24.7042 10.4152 21.9205C9.40729 19.2548 11.0573 16.0379 13.7814 15.2625C15.4706 14.6682 17.2108 15.3373 18.6561 16.2154C19.3884 15.5302 20.0736 14.7979 20.7467 14.0578C19.1046 12.6838 16.9944 11.8413 14.825 12.0263C10.5685 12.077 6.84356 16.0065 7.00506 20.2587Z" fill="#DC4E41"/>
<path d="M28.2434 16.7144C28.2356 17.498 28.2274 18.2855 28.2235 19.0688C27.4359 19.0767 26.6526 19.0806 25.869 19.0845C25.869 19.8681 25.869 20.6475 25.869 21.4311C26.6526 21.435 27.4402 21.4389 28.2235 21.4471C28.2313 22.2308 28.2313 23.014 28.2392 23.8016C29.0189 23.8016 29.8025 23.7977 30.5858 23.8016C30.59 23.014 30.5936 22.2308 30.6018 21.4432C31.3851 21.4393 32.1726 21.4354 32.9563 21.4315C32.9563 20.6478 32.9563 19.8685 32.9563 19.0849C32.173 19.0809 31.3854 19.077 30.6018 19.0692C30.5975 18.2855 30.59 17.498 30.5858 16.7147C29.8025 16.7144 29.0228 16.7144 28.2434 16.7144Z" fill="#DC4E41"/>
<path d="M7.00506 20.2581C6.84356 16.0059 10.5681 12.0763 14.8246 12.0254C16.994 11.8403 19.1046 12.6828 20.7464 14.0568C20.0729 14.7973 19.3877 15.5292 18.6557 16.2145C17.2104 15.3364 15.4703 14.6672 13.7811 15.2615C11.0565 16.0373 9.40658 19.2541 10.4148 21.9195C11.2498 24.7032 14.6356 26.2309 17.2892 25.0615C18.6632 24.5695 19.5691 23.3017 19.9667 21.9394C18.3919 21.9081 16.8168 21.9277 15.2421 21.8842C15.2382 20.9473 15.2342 20.0139 15.2382 19.077C17.8643 19.073 20.4943 19.0652 23.1244 19.0887C23.2859 21.3843 22.9472 23.8411 21.4548 25.6836C19.4112 28.3136 15.6357 29.0855 12.5643 28.0537C9.30461 26.9831 6.93412 23.6992 7.00506 20.2581Z" fill="white"/>
<path d="M28.2434 16.7144C29.0231 16.7144 29.8025 16.7144 30.5858 16.7144C30.59 17.498 30.5975 18.2855 30.6018 19.0688C31.3851 19.0767 32.1726 19.0806 32.9563 19.0845C32.9563 19.8681 32.9563 20.6475 32.9563 21.4311C32.173 21.435 31.3854 21.439 30.6018 21.4429C30.594 22.2304 30.59 23.0137 30.5858 23.8012C29.8025 23.7973 29.0185 23.8012 28.2392 23.8012C28.2317 23.0137 28.2317 22.2304 28.2235 21.4468C27.4402 21.4386 26.6526 21.435 25.869 21.4308C25.869 20.6471 25.869 19.8678 25.869 19.0841C26.6526 19.0802 27.4363 19.0763 28.2235 19.0685C28.2274 18.2855 28.2352 17.498 28.2434 16.7144Z" fill="white"/>
</svg>
