<svg width="40" height="40" viewBox="0 0 40 40" fill="none" xmlns="http://www.w3.org/2000/svg">
<path d="M20 40C31.0457 40 40 31.0457 40 20C40 8.95431 31.0457 0 20 0C8.95431 0 0 8.95431 0 20C0 31.0457 8.95431 40 20 40Z" fill="#55ACEE"/>
<path d="M32.3014 14.2418C31.4443 14.6218 30.5223 14.8789 29.5555 14.9937C30.5427 14.4022 31.3003 13.4664 31.6578 12.3494C30.7341 12.8974 29.7105 13.2949 28.6221 13.5091C27.75 12.5804 26.5076 12 25.1318 12C22.4921 12 20.3512 14.1409 20.3512 16.7806C20.3512 17.1553 20.3936 17.52 20.4756 17.8701C16.5026 17.6708 12.9798 15.7677 10.6218 12.8745C10.2104 13.5804 9.97437 14.4022 9.97437 15.2782C9.97437 16.9364 10.819 18.4002 12.101 19.2573C11.3177 19.2327 10.5801 19.0177 9.93586 18.6587C9.93551 18.679 9.93551 18.6993 9.93551 18.7193C9.93551 21.0356 11.584 22.9676 13.7706 23.4065C13.3699 23.5163 12.9467 23.5744 12.5114 23.5744C12.2026 23.5744 11.9035 23.5448 11.6119 23.4892C12.2201 25.388 13.9852 26.7702 16.0776 26.8091C14.4412 28.0915 12.3802 28.8555 10.1398 28.8555C9.75475 28.8555 9.37328 28.833 9 28.7885C11.1145 30.1454 13.628 30.9365 16.3275 30.9365C25.1207 30.9365 29.9294 23.6521 29.9294 17.3342C29.9294 17.1271 29.9248 16.9207 29.9155 16.716C30.8503 16.0422 31.6607 15.2005 32.3014 14.2418Z" fill="#F1F2F2"/>
</svg>
