<svg width="40" height="40" viewBox="0 0 40 40" fill="none" xmlns="http://www.w3.org/2000/svg">
<path d="M20 40C31.0457 40 40 31.0457 40 20C40 8.95431 31.0457 0 20 0C8.95431 0 0 8.95431 0 20C0 31.0457 8.95431 40 20 40Z" fill="#4D76A1"/>
<path fill-rule="evenodd" clip-rule="evenodd" d="M19.8488 26.8146H21.4185C21.4185 26.8146 21.8927 26.7699 22.1348 26.5457C22.3576 26.3399 22.3504 25.9535 22.3504 25.9535C22.3504 25.9535 22.3198 24.1443 23.2974 23.8779C24.261 23.6154 25.4985 25.6264 26.8101 26.3997C27.802 26.9849 28.5557 26.8565 28.5557 26.8565L32.0627 26.8146C32.0627 26.8146 33.8974 26.7175 33.0275 25.4785C32.9562 25.3772 32.5209 24.562 30.4199 22.8869C28.2209 21.1338 28.5154 21.4173 31.1643 18.3847C32.7776 16.5379 33.4225 15.4103 33.2211 14.9274C33.0289 14.4675 31.8424 14.589 31.8424 14.589L27.8936 14.6102C27.8936 14.6102 27.6009 14.5759 27.3838 14.6873C27.1717 14.7967 27.0351 15.0515 27.0351 15.0515C27.0351 15.0515 26.4101 16.4806 25.5766 17.696C23.8182 20.2607 23.1152 20.3961 22.8278 20.2368C22.1594 19.8657 22.3262 18.7458 22.3262 17.9502C22.3262 15.4649 22.7651 14.4286 21.4716 14.1603C21.0424 14.0712 20.7265 14.0124 19.6288 14.0029C18.2198 13.9904 17.0273 14.0066 16.352 14.2908C15.9028 14.4797 15.5563 14.9008 15.7673 14.925C16.0283 14.955 16.6194 15.0619 16.9328 15.4284C17.3374 15.9012 17.3232 16.9632 17.3232 16.9632C17.3232 16.9632 17.5556 19.8889 16.7802 20.2524C16.2479 20.5017 15.5178 19.9927 13.9501 17.666C13.1469 16.4742 12.5405 15.1568 12.5405 15.1568C12.5405 15.1568 12.4235 14.9106 12.215 14.7789C11.9618 14.6194 11.6082 14.5685 11.6082 14.5685L7.85581 14.5897C7.85581 14.5897 7.29251 14.6031 7.08573 14.8135C6.90177 15.0006 7.07111 15.3877 7.07111 15.3877C7.07111 15.3877 10.0088 21.2912 13.3352 24.2662C16.3852 26.9937 19.8488 26.8146 19.8488 26.8146Z" fill="white"/>
</svg>
